<?xml version="1.0"?><svg width="640" height="480" xmlns="http://www.w3.org/2000/svg">
 <!-- Created with SVG-edit - http://svg-edit.googlecode.com/ -->
 <title>lilac arrow</title>
 <g>
  <title>Layer 1</title>
  <g transform="rotate(178.95399475097656 321.2369995117188,245.21600341796875) " id="svg_39">
   <path d="m533.263672,217.641068c2.721924,-7.263992 -67.642029,-1.799988 -111.586029,-1.40799c-43.944,0.391998 -165.156006,-3.307007 -213.294998,-4.806c-48.139008,-1.499008 -120.222992,-5.888 -135.530602,-4.298004c-15.307625,1.589996 34.063576,6.572998 54.058586,8.266998c19.994995,1.695007 248.845016,5.606995 248.845016,5.606995c0,0 154.786957,3.902008 157.508026,-3.362z" stroke-width="null" stroke-linejoin="null" stroke-linecap="null" stroke-dasharray="null" fill="#00ffff" id="svg_2"/>
   <g transform="rotate(-175.60899353027344 91.95943450927734,227.428955078125) matrix(-0.765991,0.0992733,-0.10916,-0.696612,591.973,217.523) " id="svg_3">
    <path d="m586.79071,48.663872c-15.391113,-14.13409 -32.4021,-60.999902 -8.910034,-55.048702c23.490967,5.95121 46.171997,9.67069 55.892944,12.6463c9.721069,2.97559 38.072021,7.43909 53.463013,19.341479c15.390991,11.902472 26.732056,39.426821 23.492065,42.402414c-3.241089,2.975616 -7.291016,-5.207302 -13.770996,-17.109715c-6.481079,-11.902489 -8.101074,-15.621979 -19.44104,-21.573179c-11.341064,-5.95122 -25.921997,-11.902399 -61.563965,-21.5732c-35.64209,-9.6707 -42.932983,-5.20731 -39.692017,8.183c3.23999,13.3902 25.921021,46.865791 10.530029,32.731602z" stroke-width="null" stroke-linejoin="null" stroke-linecap="null" stroke-dasharray="null" fill="#00ffff" id="svg_4"/>
    <path d="m574.6026,70.047256c-15.390991,18.055305 -32.402954,77.923813 -8.910889,70.321823c23.491943,-7.60199 46.172974,-12.354004 55.893921,-16.155922c9.719971,-3.800385 38.072021,-9.502899 53.463013,-24.706879c15.390991,-15.204102 26.730957,-50.365509 23.490967,-54.165829c-3.23999,-3.801701 -7.289917,6.651611 -13.770996,21.855618c-6.47998,15.205292 -8.099976,19.956085 -19.440918,27.559395c-11.340088,7.60202 -25.921021,15.20401 -61.562988,27.558098c-35.643066,12.352516 -42.933105,6.651497 -39.693115,-10.453278c3.240112,-17.10482 25.922119,-59.868221 10.531006,-41.813026z" transform="rotate(21.250499725341797 626.5982666015625,92.79416656494124) " stroke-width="null" stroke-linejoin="null" stroke-linecap="null" stroke-dasharray="null" fill="#00ffff" id="svg_5"/>
   </g>
   <g transform="rotate(172.7429962158203 560.6400756835936,223.76338195800778) matrix(0.760178,-0.131119,0.144178,0.691326,-7.92616,84.2289) " id="svg_6">
    <path d="m736.009521,310.45639c-8,14 -32,61.999969 -39,73.999969c-7,12 -10,4 5,-29c15,-32.999969 42,-58.999969 34,-44.999969z" transform="rotate(-10.757200241088867 714.3515014648438,348.1552429199221) " stroke-width="null" stroke-linejoin="null" stroke-linecap="null" stroke-dasharray="null" fill="#00ffff" id="svg_7"/>
    <path d="m705.009521,275.45639c-8,14 -32,62 -39,74c-7,11.999969 -10,4 5,-29c15,-33 42,-59 34,-45z" transform="rotate(-127.53600311279297 683.3515014648438,313.1552429199219) " stroke-width="null" stroke-linejoin="null" stroke-linecap="null" stroke-dasharray="null" fill="#00ffff" id="svg_8"/>
    <path d="m691.009521,318.45639c-8,14 -32,61.999969 -39,73.999969c-7,12 -10,4 5,-29c15,-32.999969 42,-58.999969 34,-44.999969z" transform="rotate(110.7239990234375 669.3515014648438,356.1552429199219) " stroke-width="null" stroke-linejoin="null" stroke-linecap="null" stroke-dasharray="null" fill="#00ffff" id="svg_9"/>
   </g>
  </g>
 </g>
</svg>